#!OML:ASF F:\twosubjects\two\Thursday\Session 1\justin.ASF
:FULLY-SPECIFIED
:DEGREES
625
root 7.08522 14.5789 -12.6221 39.4506 48.9224 5.28224
lowerback 36.1411 0.0319307 -2.26002
upperback 10.5164 -0.584844 -5.76916
thorax -6.57076 0.126488 -4.71722
lowerneck -16.0695 -13.3921 -19.5578
upperneck 14.9677 -18.6308 23.7877
head 12.0222 -7.76785 8.75826
rclavicle 6.0033e-014 1.03865e-014
rhumerus 15.5004 -32.8887 -63.441
rradius 122.324
rwrist 11.8738
rhand 8.02886 0.61586
rfingers 7.12502
rthumb 33.2545 -26.3303
lclavicle 6.0033e-014 1.03865e-014
lhumerus 64.6338 -67.1026 52.7904
lradius 84.6422
lwrist -13.753
lhand -13.7697 -298.312
lfingers 7.12502
lthumb 12.3511 -91.3028
rfemur -81.1654 -43.2976 19.5382
rtibia 69.3106
rfoot -19.5809 -3.13683
rtoes -26.926
lfemur -64.2379 4.73537 14.7503
ltibia 36.9792
lfoot -17.1838 -5.11555
ltoes -32.1232
626
root 7.08285 14.5915 -12.6342 39.5117 48.9114 5.62621
lowerback 36.3135 -0.078506 -2.1209
upperback 10.5224 -0.682523 -5.85324
thorax -6.63816 0.087322 -4.84716
lowerneck -16.3071 -13.4591 -19.7448
upperneck 14.7419 -18.7989 24.5505
head 12.1721 -7.78718 9.05027
rclavicle 1.66979e-014 3.77194e-014
rhumerus 15.12 -32.3913 -63.892
rradius 122.595
rwrist 12.734
rhand 8.30562 1.22862
rfingers 7.12502
rthumb 33.5176 -25.6609
lclavicle 1.66979e-014 3.77194e-014
lhumerus 64.4994 -66.9531 52.7689
lradius 84.5112
lwrist -13.3685
lhand -13.723 -298.494
lfingers 7.12502
lthumb 12.3962 -91.1183
rfemur -80.7527 -43.3785 19.0785
rtibia 69.136
rfoot -19.3735 -3.2289
rtoes -26.997
lfemur -63.8063 4.30877 14.7042
ltibia 36.4275
lfoot -16.803 -5.65233
ltoes -29.244
627
root 7.07948 14.6067 -12.6466 39.5719 48.9365 5.96857
lowerback 36.4652 -0.217584 -1.89621
upperback 10.4483 -0.793953 -5.91084
thorax -6.78978 0.0376951 -4.98965
lowerneck -16.2768 -13.4828 -20.1491
upperneck 14.4497 -18.8239 25.103
head 12.1989 -7.79243 9.3342
rclavicle 5.76476e-015 4.2689e-014
rhumerus 16.1237 -32.7861 -63.2275
rradius 121.128
rwrist 12.0419
rhand 8.69082 1.42604
rfingers 7.12502
rthumb 33.8836 -25.3835
lclavicle 5.76476e-015 4.2689e-014
lhumerus 64.2002 -66.8313 53.0621
lradius 84.1419
lwrist -13.4037
lhand -13.6955 -299.212
lfingers 7.12502
lthumb 12.4227 -90.3989
rfemur -80.3504 -43.5081 18.6629
rtibia 68.9234
rfoot -19.1838 -3.20541
rtoes -27.1726
lfemur -63.4273 3.81016 14.7248
ltibia 35.9157
lfoot -16.3731 -5.75085
ltoes -27.6461
628
root 7.07483 14.626 -12.664 39.6041 49.0574 6.21749
lowerback 36.5729 -0.414044 -1.53029
upperback 10.4008 -0.923456 -5.98206
thorax -6.90456 -0.0195124 -5.21399
lowerneck -16.3881 -13.5294 -20.1039
upperneck 14.0726 -18.8564 25.2542
head 12.1074 -7.79681 9.35305
rclavicle 4.85035e-014 3.73715e-014
rhumerus 15.0106 -31.9429 -63.6212
rradius 122.073
rwrist 12.8756
rhand 8.42949 1.11262
rfingers 7.12502
rthumb 33.6353 -25.7514
lclavicle 4.85035e-014 3.73715e-014
lhumerus 64.2434 -66.6288 53.0036
lradius 83.7348
lwrist -13.5479
lhand -13.549 -299.921
lfingers 7.12502
lthumb 12.5639 -270.318
rfemur -79.9317 -43.5972 18.2852
rtibia 68.6698
rfoot -19.0589 -3.10929
rtoes -26.7602
lfemur -63.1671 3.29044 14.8655
ltibia 35.4253
lfoot -16.1686 -5.2966
ltoes -28.2282
629
root 7.06659 14.6498 -12.685 39.9889 48.9219 6.76436
lowerback 36.5393 -0.504762 -1.5272
upperback 10.3581 -1.0519 -6.16967
thorax -6.95946 -0.0749689 -5.36895
lowerneck -16.47 -13.556 -19.7066
upperneck 13.6024 -18.9639 25.5388
head 11.9799 -7.81147 9.34326
rclavicle 8.80616e-014 2.49972e-014
rhumerus 14.6853 -31.6171 -63.5044
rradius 121.955
rwrist 13.1404
rhand 8.08751 0.543465
rfingers 7.12502
rthumb 33.3102 -26.3908
lclavicle 8.80616e-014 2.49972e-014
lhumerus 64.3075 -66.4619 52.7384
lradius 83.4398
lwrist -13.5068
lhand -13.4636 -300.337
lfingers 7.12502
lthumb 12.6463 -270.74
rfemur -79.6685 -43.5528 17.6271
rtibia 68.4188
rfoot -19.0319 -3.20452
rtoes -25.9701
lfemur -63.0253 2.96469 14.5383
ltibia 34.9422
lfoot -15.9917 -4.77921
ltoes -30.1724
630
root 7.05317 14.6701 -12.6989 40.5724 48.6091 7.42072
lowerback 36.3375 -0.446462 -1.84481
upperback 10.224 -1.11183 -6.31949
thorax -7.03789 -0.105893 -5.33782
lowerneck -16.4037 -13.5785 -19.6008
upperneck 13.1088 -19.0906 26.1688
head 11.9129 -7.83984 9.53219
rclavicle 2.09718e-014 8.94531e-016
rhumerus 14.3601 -31.3129 -63.2394
rradius 121.656
rwrist 13.2581
rhand 7.79522 0.247418
rfingers 7.12502
rthumb 33.0323 -26.746
lclavicle 2.09718e-014 8.94531e-016
lhumerus 64.0428 -66.4154 52.8551
lradius 83.0411
lwrist -13.5109
lhand -13.6964 -300.87
lfingers 7.12502
lthumb 12.4219 -271.259
rfemur -79.5385 -43.3401 16.8314
rtibia 68.2229
rfoot -18.9343 -3.47429
rtoes -26.2113
lfemur -62.9565 2.89056 13.9276
ltibia 34.5105
lfoot -15.8562 -4.9287
ltoes -31.3281
631
root 7.0382 14.6832 -12.7038 40.4676 48.7542 7.43136
lowerback 36.3274 -0.490413 -1.63201
upperback 10.0896 -1.10158 -6.20478
thorax -7.18387 -0.109861 -5.33348
lowerneck -16.4939 -13.6449 -19.8972
upperneck 12.8316 -19.1787 26.7101
head 11.9792 -7.86034 9.77454
rclavicle -2.98177e-015 7.59109e-014
rhumerus 14.1677 -30.9395 -62.8831
rradius 121.303
rwrist 13.3117
rhand 7.44556 0.300789
rfingers 7.12502
rthumb 32.6997 -26.7623
lclavicle -2.98177e-015 7.59109e-014
lhumerus 63.3958 -66.2717 53.6099
lradius 82.8819
lwrist -12.4689
lhand -13.6552 -300.041
lfingers 7.12502
lthumb 12.4616 -270.432
rfemur -79.158 -43.1937 16.6037
rtibia 68.0987
rfoot -18.8257 -3.67451
rtoes -27.2217
lfemur -62.7521 2.74131 14.0325
ltibia 34.0955
lfoot -15.8933 -5.33813
ltoes -31.3952
632
root 7.02841 14.6873 -12.7109 40.13 49.096 7.40183
lowerback 36.4931 -0.693998 -1.10671
upperback 10.0345 -1.17609 -6.13919
thorax -7.32429 -0.146664 -5.51729
lowerneck -16.4323 -13.7057 -20.1253
upperneck 12.3119 -19.2606 27.3071
head 11.9284 -7.89248 10.0193
rclavicle -5.26779e-015 9.31555e-014
rhumerus 14.1581 -30.5585 -62.9268
rradius 120.904
rwrist 13.4909
rhand 7.22255 0.650865
rfingers 7.12502
rthumb 32.4875 -26.4561
lclavicle -5.26779e-015 9.31555e-014
lhumerus 63.1842 -66.0761 53.6642
lradius 82.6175
lwrist -12.0773
lhand -13.8384 -299.975
lfingers 7.12502
lthumb 12.2849 -270.356
rfemur -78.7274 -43.4479 16.6451
rtibia 68.0052
rfoot -18.753 -3.62917
rtoes -27.7996
lfemur -62.4549 2.24867 14.418
ltibia 33.6683
lfoot -16.1152 -5.44974
ltoes -31.2842
633
root 6.99909 14.7081 -12.6863 39.4337 48.6302 7.01531
lowerback 36.6013 -0.314026 -1.54254
upperback 9.99729 -0.882548 -6.24019
thorax -7.36737 -0.00985485 -5.50611
lowerneck -16.2852 -13.8168 -20.0309
upperneck 11.5727 -19.5375 28.2485
head 11.8654 -7.99213 10.2932
rclavicle 6.2319e-014 -2.14687e-014
rhumerus 14.1974 -30.3088 -63.4467
rradius 120.529
rwrist 13.9518
rhand 7.55387 0.862284
rfingers 7.12502
rthumb 32.8027 -26.1793
lclavicle 6.2319e-014 -2.14687e-014
lhumerus 63.396 -65.9277 52.9747
lradius 82.6229
lwrist -11.5212
lhand -13.4506 -299.283
lfingers 7.12502
lthumb 12.6588 -450.313
rfemur -78.0531 -42.7376 16.2203
rtibia 67.9067
rfoot -18.7905 -3.71601
rtoes -27.4971
lfemur -61.4148 2.3731 14.4755
ltibia 33.1759
lfoot -16.2171 -5.65937
ltoes -30.5536
634
root 6.97609 14.7307 -12.6744 38.9353 48.1923 6.71738
lowerback 36.6192 0.00904946 -1.89474
upperback 9.93029 -0.632207 -6.34023
thorax -7.4195 0.104775 -5.52218
lowerneck -16.3747 -14.0109 -20.0357
upperneck 11.1644 -19.9563 29.2476
head 12.044 -8.12979 10.5923
rclavicle 3.26007e-014 8.52538e-014
rhumerus 14.212 -29.9934 -63.8249
rradius 120.256
rwrist 14.5002
rhand 8.06187 0.85266
rfingers 7.12502
rthumb 33.2859 -26.0868
lclavicle 3.26007e-014 8.52538e-014
lhumerus 62.9219 -65.8995 53.1117
lradius 82.1321
lwrist -11.8231
lhand -13.5409 -300.59
lfingers 7.12502
lthumb 12.5718 -270.988
rfemur -77.413 -41.971 15.7017
rtibia 67.7522
rfoot -18.8069 -3.87467
rtoes -26.3096
lfemur -60.546 2.43143 14.5726
ltibia 32.6474
lfoot -16.0343 -5.6682
ltoes -29.5608
635
root 6.9609 14.7432 -12.6751 38.975 48.1007 6.87336
lowerback 36.4071 0.134094 -2.08873
upperback 9.84721 -0.541459 -6.24977
thorax -7.42059 0.139638 -5.35416
lowerneck -16.4091 -14.1767 -20.2164
upperneck 10.7902 -20.2288 29.9174
head 12.1467 -8.23488 10.8214
rclavicle -8.54774e-015 1.95803e-014
rhumerus 14.1418 -29.4882 -63.7607
rradius 119.995
rwrist 14.6261
rhand 8.16143 0.721238
rfingers 7.12502
rthumb 33.3805 -26.1979
lclavicle -8.54774e-015 1.95803e-014
lhumerus 61.8105 -65.8437 54.1845
lradius 81.6895
lwrist -11.8028
lhand -13.6449 -301.121
lfingers 7.12502
lthumb 12.4715 -271.513
rfemur -77.1165 -41.7549 15.3603
rtibia 67.6027
rfoot -18.7421 -4.02306
rtoes -25.8791
lfemur -60.1393 2.13164 14.6859
ltibia 32.0086
lfoot -16.0528 -5.17872
ltoes -29.9003
